<?xml version="1.0" encoding="UTF-8" standalone="no"?>
<!-- Created with Inkscape (http://www.inkscape.org/) -->

<svg
   xmlns:dc="http://purl.org/dc/elements/1.1/"
   xmlns:cc="http://creativecommons.org/ns#"
   xmlns:rdf="http://www.w3.org/1999/02/22-rdf-syntax-ns#"
   xmlns:svg="http://www.w3.org/2000/svg"
   xmlns="http://www.w3.org/2000/svg"
   xmlns:sodipodi="http://sodipodi.sourceforge.net/DTD/sodipodi-0.dtd"
   xmlns:inkscape="http://www.inkscape.org/namespaces/inkscape"
   width="210mm"
   height="297mm"
   viewBox="0 0 210 297"
   version="1.1"
   id="svg8"
   inkscape:version="0.92.3 (2405546, 2018-03-11)"
   sodipodi:docname="Book.svg">
  <defs
     id="defs2" />
  <sodipodi:namedview
     id="base"
     pagecolor="#ffffff"
     bordercolor="#666666"
     borderopacity="1.0"
     inkscape:pageopacity="0.0"
     inkscape:pageshadow="2"
     inkscape:zoom="0.7"
     inkscape:cx="352.27885"
     inkscape:cy="504.34454"
     inkscape:document-units="mm"
     inkscape:current-layer="layer1"
     showgrid="false"
     inkscape:window-width="1920"
     inkscape:window-height="1017"
     inkscape:window-x="-8"
     inkscape:window-y="-8"
     inkscape:window-maximized="1" />
  <metadata
     id="metadata5">
    <rdf:RDF>
      <cc:Work
         rdf:about="">
        <dc:format>image/svg+xml</dc:format>
        <dc:type
           rdf:resource="http://purl.org/dc/dcmitype/StillImage" />
        <dc:title></dc:title>
      </cc:Work>
    </rdf:RDF>
  </metadata>
  <g
     inkscape:label="Layer 1"
     inkscape:groupmode="layer"
     id="layer1">
    <path
       style="fill:none;stroke:#000000;stroke-width:1.001;stroke-linecap:butt;stroke-linejoin:miter;stroke-opacity:1;stroke-miterlimit:4;stroke-dasharray:none"
       d="m 48.758061,172.64533 21.201302,-1.89112 20.37769,3.40756"
       id="path817"
       inkscape:connector-curvature="0"
       sodipodi:nodetypes="ccc" />
    <path
       style="fill:none;stroke:#000000;stroke-width:1.001;stroke-linecap:butt;stroke-linejoin:miter;stroke-opacity:1;stroke-miterlimit:4;stroke-dasharray:none"
       d="m 90.337053,174.16177 21.201297,-1.89112 20.37769,3.40756"
       id="path817-0"
       inkscape:connector-curvature="0"
       sodipodi:nodetypes="ccc" />
    <path
       style="fill:none;stroke:#000000;stroke-width:1.001;stroke-linecap:butt;stroke-linejoin:miter;stroke-opacity:1;stroke-miterlimit:4;stroke-dasharray:none"
       d="m 48.758062,172.64533 c 7.93e-4,-7.937 0,-62.36557 0,-62.36557 h 83.533598 v 65.38988 l -0.37562,0.009"
       id="path834"
       inkscape:connector-curvature="0" />
    <path
       style="fill:none;stroke:#000000;stroke-width:1.001;stroke-linecap:butt;stroke-linejoin:miter;stroke-opacity:1;stroke-miterlimit:4;stroke-dasharray:none"
       d="M 90.337051,174.16177 V 110.27976"
       id="path836"
       inkscape:connector-curvature="0" />
    <path
       style="fill:none;stroke:#000000;stroke-width:0.5;stroke-linecap:butt;stroke-linejoin:miter;stroke-miterlimit:4;stroke-dasharray:none;stroke-opacity:1"
       d="m 54.050594,121.99702 c 0.125992,-0.50397 0.251983,-1.00794 0.377975,-1.5119 0.125992,0 0.288888,0.0891 0.377979,0 0.178178,-0.17819 -0.178181,-0.57778 0,-0.75596 0.782045,-0.78204 -0.03057,1.19507 0.755951,-0.37797 0.05635,-0.1127 -0.08909,-0.28889 0,-0.37798 0.178179,-0.17818 0.577774,0.17818 0.755952,0 0.178181,-0.17818 -0.178178,-0.57777 0,-0.75595 0.178181,-0.17818 0.577773,0.17818 0.755952,0 0.08909,-0.0891 -0.08909,-0.28889 0,-0.37798 0.08909,-0.0891 0.265287,0.0563 0.377978,0 0.159367,-0.0797 0.218607,-0.29829 0.377976,-0.37798 0.22538,-0.11268 0.577773,0.17818 0.755952,0 0.08909,-0.0891 -0.08909,-0.28888 0,-0.37797 0.08909,-0.0891 0.251983,0 0.377975,0 0.62996,0 1.259922,0 1.889882,0 0.125992,0 0.288885,-0.0891 0.377976,0 0.09095,0.0909 -0.09095,1.42095 0,1.5119 0.178181,0.17818 0.577773,-0.17818 0.755952,0 0.178181,0.17818 -0.112689,0.53058 0,0.75596 0.382225,0.76445 0.877159,0.1212 1.13393,0.37797 0.08909,0.0891 -0.08909,0.28889 0,0.37798 0.09095,0.091 1.42095,-0.091 1.511903,0 0.178181,0.17818 -0.178179,0.57777 0,0.75595 0.188989,0.18899 0.944941,-0.18899 1.13393,0 0.08909,0.0891 -0.08909,0.28889 0,0.37798 0.09095,0.0909 1.42095,-0.091 1.511903,0 0.08909,0.0891 -0.08909,0.28888 0,0.37797 0.08909,0.0891 0.251984,0 0.377976,0 0.629962,0 1.259922,0 1.889882,0 1.13393,0 2.267857,0 3.401785,0 0.125991,0 0.251986,0 0.377978,0 0.125992,0 0.288885,0.0891 0.377976,0 0.08909,-0.0891 -0.08909,-0.28888 0,-0.37797 0.178178,-0.17818 0.577773,0.17818 0.755951,0 0.08909,-0.0891 -0.08909,-0.28889 0,-0.37798 0.08909,-0.0891 0.265285,0.0563 0.377976,0 0.318738,-0.15937 0.437216,-0.59658 0.755952,-0.75595 0.112691,-0.0563 0.288888,0.0891 0.377978,0 0.08909,-0.0891 -0.05634,-0.26529 0,-0.37798 0.07969,-0.15937 0.251984,-0.25198 0.377976,-0.37797 0.125992,-0.126 0.218607,-0.2983 0.377976,-0.37798 0.112691,-0.0563 0.288885,0.0891 0.377976,0 0.782047,-0.78205 -1.19507,0.0306 0.377976,-0.75595 0.225382,-0.11269 0.577773,0.17818 0.755951,0 0.08909,-0.0891 -0.05634,-0.26529 0,-0.37798 0.07968,-0.15937 0.251987,-0.25198 0.377979,-0.37798 0.125992,-0.12599 0.218606,-0.29829 0.377975,-0.37797 0.112692,-0.0564 0.251984,0 0.377976,0 0.755952,0 1.511903,0 2.267858,0 0.125992,0 0.288885,-0.0891 0.377975,0 0.178179,0.17818 -0.178181,0.57777 0,0.75595 0.08909,0.0891 0.288886,-0.0891 0.377976,0 0.18899,0.18899 -0.188989,0.94494 0,1.13393 0.08909,0.0891 0.288886,-0.0891 0.377976,0 0.08909,0.0891 -0.08909,0.28889 0,0.37798 0.08909,0.0891 0.251984,0 0.377976,0 0.629962,0 1.259922,0 1.889882,0"
       id="path872"
       inkscape:connector-curvature="0" />
    <path
       style="fill:none;stroke:#000000;stroke-width:0.5;stroke-linecap:butt;stroke-linejoin:miter;stroke-miterlimit:4;stroke-dasharray:none;stroke-opacity:1"
       d="m 54.549839,131.37144 c 0.125992,-0.50397 0.251983,-1.00794 0.377975,-1.5119 0.125992,0 0.288888,0.0891 0.377979,0 0.178178,-0.17819 -0.178181,-0.57778 0,-0.75596 0.782045,-0.78204 -0.03057,1.19507 0.755951,-0.37797 0.05635,-0.1127 -0.08909,-0.28889 0,-0.37798 0.178179,-0.17818 0.577774,0.17818 0.755952,0 0.178181,-0.17818 -0.178178,-0.57777 0,-0.75595 0.178181,-0.17818 0.577773,0.17818 0.755952,0 0.08909,-0.0891 -0.08909,-0.28889 0,-0.37798 0.08909,-0.0891 0.265287,0.0563 0.377978,0 0.159367,-0.0797 0.218607,-0.29829 0.377977,-0.37798 0.22538,-0.11268 0.577773,0.17818 0.755951,0 0.08909,-0.0891 -0.08909,-0.28888 0,-0.37797 0.08909,-0.0891 0.251983,0 0.377975,0 0.62996,0 1.259922,0 1.889882,0 0.125993,0 0.288885,-0.0891 0.377976,0 0.09095,0.0909 -0.09095,1.42095 0,1.5119 0.178181,0.17818 0.577773,-0.17818 0.755953,0 0.178181,0.17818 -0.11269,0.53058 0,0.75596 0.382225,0.76445 0.877158,0.1212 1.133929,0.37797 0.08909,0.0891 -0.08909,0.28889 0,0.37798 0.09095,0.091 1.420951,-0.091 1.511904,0 0.178181,0.17818 -0.178179,0.57777 0,0.75595 0.188989,0.18899 0.944941,-0.18899 1.13393,0 0.08909,0.0891 -0.08909,0.28889 0,0.37798 0.09095,0.0909 1.42095,-0.091 1.511903,0 0.08909,0.0891 -0.08909,0.28888 0,0.37797 0.08909,0.0891 0.251984,0 0.377976,0 0.629962,0 1.259922,0 1.889882,0 1.13393,0 2.267857,0 3.401785,0 0.125991,0 0.251986,0 0.377978,0 0.125992,0 0.288885,0.0891 0.377976,0 0.08909,-0.0891 -0.08909,-0.28888 0,-0.37797 0.178178,-0.17818 0.577773,0.17818 0.755951,0 0.08909,-0.0891 -0.08909,-0.28889 0,-0.37798 0.08909,-0.0891 0.265285,0.0563 0.377976,0 0.318738,-0.15937 0.437216,-0.59658 0.755952,-0.75595 0.112691,-0.0563 0.288888,0.0891 0.377978,0 0.08909,-0.0891 -0.05634,-0.26529 0,-0.37798 0.07969,-0.15937 0.251984,-0.25198 0.377976,-0.37797 0.125992,-0.126 0.218607,-0.2983 0.377976,-0.37798 0.112691,-0.0563 0.288885,0.0891 0.377976,0 0.782047,-0.78205 -1.19507,0.0306 0.377976,-0.75595 0.225382,-0.11269 0.577773,0.17818 0.755951,0 0.08909,-0.0891 -0.05634,-0.26529 0,-0.37798 0.07968,-0.15937 0.251987,-0.25198 0.377979,-0.37798 0.125992,-0.12599 0.218606,-0.29829 0.377975,-0.37797 0.112692,-0.0564 0.251984,0 0.377976,0 0.755952,0 1.511904,0 2.267858,0 0.125992,0 0.288885,-0.0891 0.377976,0 0.178178,0.17818 -0.178181,0.57777 0,0.75595 0.08909,0.0891 0.288885,-0.0891 0.377976,0 0.188989,0.18899 -0.18899,0.94494 0,1.13393 0.08909,0.0891 0.288885,-0.0891 0.377975,0 0.08909,0.0891 -0.08909,0.28889 0,0.37798 0.08909,0.0891 0.251984,0 0.377976,0 0.629963,0 1.259922,0 1.889882,0"
       id="path872-5"
       inkscape:connector-curvature="0" />
    <path
       style="fill:none;stroke:#000000;stroke-width:0.5;stroke-linecap:butt;stroke-linejoin:miter;stroke-miterlimit:4;stroke-dasharray:none;stroke-opacity:1"
       d="m 54.549839,140.44288 c 0.125992,-0.50397 0.251983,-1.00794 0.377975,-1.5119 0.125992,0 0.288888,0.0891 0.377979,0 0.178178,-0.17819 -0.178181,-0.57778 0,-0.75596 0.782045,-0.78204 -0.03057,1.19507 0.755951,-0.37797 0.05635,-0.1127 -0.08909,-0.28889 0,-0.37798 0.178179,-0.17818 0.577774,0.17818 0.755952,0 0.178181,-0.17818 -0.178178,-0.57777 0,-0.75595 0.178181,-0.17818 0.577773,0.17818 0.755952,0 0.08909,-0.0891 -0.08909,-0.28889 0,-0.37798 0.08909,-0.0891 0.265287,0.0563 0.377978,0 0.159367,-0.0797 0.218607,-0.29829 0.377976,-0.37798 0.22538,-0.11268 0.577773,0.17818 0.755952,0 0.08909,-0.0891 -0.08909,-0.28888 0,-0.37797 0.08909,-0.0891 0.251983,0 0.377975,0 0.62996,0 1.259922,0 1.889882,0 0.125992,0 0.288885,-0.0891 0.377976,0 0.09095,0.0909 -0.09095,1.42095 0,1.5119 0.178181,0.17818 0.577773,-0.17818 0.755952,0 0.178181,0.17818 -0.112689,0.53058 0,0.75596 0.382225,0.76445 0.877159,0.1212 1.13393,0.37797 0.08909,0.0891 -0.08909,0.28889 0,0.37798 0.09095,0.091 1.42095,-0.091 1.511903,0 0.178181,0.17818 -0.178179,0.57777 0,0.75595 0.188989,0.18899 0.944941,-0.18899 1.13393,0 0.08909,0.0891 -0.08909,0.28889 0,0.37798 0.09095,0.0909 1.42095,-0.091 1.511903,0 0.08909,0.0891 -0.08909,0.28888 0,0.37797 0.08909,0.0891 0.251984,0 0.377976,0 0.629962,0 1.259922,0 1.889882,0 1.13393,0 2.267857,0 3.401785,0 0.125991,0 0.251986,0 0.377978,0 0.125992,0 0.288885,0.0891 0.377976,0 0.08909,-0.0891 -0.08909,-0.28888 0,-0.37797 0.178178,-0.17818 0.577773,0.17818 0.755951,0 0.08909,-0.0891 -0.08909,-0.28889 0,-0.37798 0.08909,-0.0891 0.265285,0.0563 0.377976,0 0.318738,-0.15937 0.437216,-0.59658 0.755952,-0.75595 0.112691,-0.0563 0.288888,0.0891 0.377978,0 0.08909,-0.0891 -0.05634,-0.26529 0,-0.37798 0.07969,-0.15937 0.251984,-0.25198 0.377976,-0.37797 0.125992,-0.126 0.218607,-0.2983 0.377976,-0.37798 0.112691,-0.0563 0.288885,0.0891 0.377976,0 0.782047,-0.78205 -1.19507,0.0306 0.377976,-0.75595 0.225382,-0.11269 0.577773,0.17818 0.755951,0 0.08909,-0.0891 -0.05634,-0.26529 0,-0.37798 0.07968,-0.15937 0.251987,-0.25198 0.377979,-0.37798 0.125992,-0.12599 0.218606,-0.29829 0.377975,-0.37797 0.112692,-0.0564 0.251984,0 0.377976,0 0.755952,0 1.511904,0 2.267858,0 0.125992,0 0.288885,-0.0891 0.377976,0 0.178178,0.17818 -0.178181,0.57777 0,0.75595 0.08909,0.0891 0.288885,-0.0891 0.377976,0 0.188989,0.18899 -0.18899,0.94494 0,1.13393 0.08909,0.0891 0.288885,-0.0891 0.377975,0 0.08909,0.0891 -0.08909,0.28889 0,0.37798 0.08909,0.0891 0.251984,0 0.377976,0 0.629963,0 1.259922,0 1.889882,0"
       id="path872-0"
       inkscape:connector-curvature="0" />
    <path
       style="fill:none;stroke:#000000;stroke-width:0.5;stroke-linecap:butt;stroke-linejoin:miter;stroke-miterlimit:4;stroke-dasharray:none;stroke-opacity:1"
       d="m 54.171863,149.89228 c 0.125992,-0.50397 0.251983,-1.00794 0.377975,-1.5119 0.125992,0 0.288888,0.0891 0.377979,0 0.178178,-0.17819 -0.178181,-0.57778 0,-0.75596 0.782045,-0.78204 -0.03057,1.19507 0.755951,-0.37797 0.05635,-0.1127 -0.08909,-0.28889 0,-0.37798 0.178179,-0.17818 0.577774,0.17818 0.755952,0 0.178181,-0.17818 -0.178178,-0.57777 0,-0.75595 0.178181,-0.17818 0.577773,0.17818 0.755952,0 0.08909,-0.0891 -0.08909,-0.28889 0,-0.37798 0.08909,-0.0891 0.265287,0.0563 0.377978,0 0.159367,-0.0797 0.218607,-0.29829 0.377976,-0.37798 0.22538,-0.11268 0.577773,0.17818 0.755952,0 0.08909,-0.0891 -0.08909,-0.28888 0,-0.37797 0.08909,-0.0891 0.251983,0 0.377975,0 0.62996,0 1.259922,0 1.889882,0 0.125992,0 0.288885,-0.0891 0.377976,0 0.09095,0.0909 -0.09095,1.42095 0,1.5119 0.178181,0.17818 0.577773,-0.17818 0.755952,0 0.178181,0.17818 -0.112689,0.53058 0,0.75596 0.382225,0.76445 0.877159,0.1212 1.13393,0.37797 0.08909,0.0891 -0.08909,0.28889 0,0.37798 0.09095,0.091 1.42095,-0.091 1.511903,0 0.178181,0.17818 -0.178179,0.57777 0,0.75595 0.188989,0.18899 0.944941,-0.18899 1.13393,0 0.08909,0.0891 -0.08909,0.28889 0,0.37798 0.09095,0.0909 1.42095,-0.091 1.511903,0 0.08909,0.0891 -0.08909,0.28888 0,0.37797 0.08909,0.0891 0.251984,0 0.377976,0 0.629962,0 1.259922,0 1.889882,0 1.13393,0 2.267857,0 3.401785,0 0.125991,0 0.251986,0 0.377978,0 0.125992,0 0.288885,0.0891 0.377976,0 0.08909,-0.0891 -0.08909,-0.28888 0,-0.37797 0.178178,-0.17818 0.577773,0.17818 0.755951,0 0.08909,-0.0891 -0.08909,-0.28889 0,-0.37798 0.08909,-0.0891 0.265285,0.0563 0.377976,0 0.318738,-0.15937 0.437216,-0.59658 0.755952,-0.75595 0.112691,-0.0563 0.288888,0.0891 0.377978,0 0.08909,-0.0891 -0.05634,-0.26529 0,-0.37798 0.07969,-0.15937 0.251984,-0.25198 0.377976,-0.37797 0.125992,-0.126 0.218607,-0.2983 0.377976,-0.37798 0.112691,-0.0563 0.288885,0.0891 0.377976,0 0.782047,-0.78205 -1.19507,0.0306 0.377976,-0.75595 0.225382,-0.11269 0.577773,0.17818 0.755951,0 0.08909,-0.0891 -0.05634,-0.26529 0,-0.37798 0.07968,-0.15937 0.251987,-0.25198 0.377979,-0.37798 0.125992,-0.12599 0.218606,-0.29829 0.377975,-0.37797 0.112692,-0.0564 0.251984,0 0.377976,0 0.755952,0 1.511904,0 2.267858,0 0.125992,0 0.288885,-0.0891 0.377976,0 0.178178,0.17818 -0.178181,0.57777 0,0.75595 0.08909,0.0891 0.288885,-0.0891 0.377976,0 0.188989,0.18899 -0.18899,0.94494 0,1.13393 0.08909,0.0891 0.288885,-0.0891 0.377975,0 0.08909,0.0891 -0.08909,0.28889 0,0.37798 0.08909,0.0891 0.251984,0 0.377976,0 0.629963,0 1.259922,0 1.889882,0"
       id="path872-9"
       inkscape:connector-curvature="0" />
    <path
       style="fill:none;stroke:#000000;stroke-width:0.5;stroke-linecap:butt;stroke-linejoin:miter;stroke-miterlimit:4;stroke-dasharray:none;stroke-opacity:1"
       d="m 54.549839,160.09763 c 0.125992,-0.50397 0.251983,-1.00794 0.377975,-1.5119 0.125992,0 0.288888,0.0891 0.377979,0 0.178178,-0.17819 -0.178181,-0.57778 0,-0.75596 0.782045,-0.78204 -0.03057,1.19507 0.755951,-0.37797 0.05635,-0.1127 -0.08909,-0.28889 0,-0.37798 0.178179,-0.17818 0.577774,0.17818 0.755952,0 0.178181,-0.17818 -0.178178,-0.57777 0,-0.75595 0.178181,-0.17818 0.577773,0.17818 0.755952,0 0.08909,-0.0891 -0.08909,-0.28889 0,-0.37798 0.08909,-0.0891 0.265287,0.0563 0.377978,0 0.159367,-0.0797 0.218607,-0.29829 0.377976,-0.37798 0.22538,-0.11268 0.577773,0.17818 0.755952,0 0.08909,-0.0891 -0.08909,-0.28888 0,-0.37797 0.08909,-0.0891 0.251983,0 0.377975,0 0.62996,0 1.259922,0 1.889882,0 0.125992,0 0.288885,-0.0891 0.377976,0 0.09095,0.0909 -0.09095,1.42095 0,1.5119 0.178181,0.17818 0.577773,-0.17818 0.755952,0 0.178181,0.17818 -0.112689,0.53058 0,0.75596 0.382225,0.76445 0.877159,0.1212 1.13393,0.37797 0.08909,0.0891 -0.08909,0.28889 0,0.37798 0.09095,0.091 1.42095,-0.091 1.511903,0 0.178181,0.17818 -0.178179,0.57777 0,0.75595 0.188989,0.18899 0.944941,-0.18899 1.13393,0 0.08909,0.0891 -0.08909,0.28889 0,0.37798 0.09095,0.0909 1.42095,-0.091 1.511903,0 0.08909,0.0891 -0.08909,0.28888 0,0.37797 0.08909,0.0891 0.251984,0 0.377976,0 0.629962,0 1.259922,0 1.889882,0 1.13393,0 2.267857,0 3.401785,0 0.125991,0 0.251986,0 0.377978,0 0.125992,0 0.288885,0.0891 0.377976,0 0.08909,-0.0891 -0.08909,-0.28888 0,-0.37797 0.178178,-0.17818 0.577773,0.17818 0.755951,0 0.08909,-0.0891 -0.08909,-0.28889 0,-0.37798 0.08909,-0.0891 0.265285,0.0563 0.377976,0 0.318738,-0.15937 0.437216,-0.59658 0.755952,-0.75595 0.112691,-0.0563 0.288888,0.0891 0.377978,0 0.08909,-0.0891 -0.05634,-0.26529 0,-0.37798 0.07969,-0.15937 0.251984,-0.25198 0.377976,-0.37797 0.125992,-0.126 0.218607,-0.2983 0.377976,-0.37798 0.112691,-0.0563 0.288885,0.0891 0.377976,0 0.782047,-0.78205 -1.19507,0.0306 0.377976,-0.75595 0.225382,-0.11269 0.577773,0.17818 0.755951,0 0.08909,-0.0891 -0.05634,-0.26529 0,-0.37798 0.07968,-0.15937 0.251987,-0.25198 0.377979,-0.37798 0.125992,-0.12599 0.218606,-0.29829 0.377975,-0.37797 0.112692,-0.0564 0.251984,0 0.377976,0 0.755952,0 1.511904,0 2.267858,0 0.125992,0 0.288885,-0.0891 0.377976,0 0.178178,0.17818 -0.178181,0.57777 0,0.75595 0.08909,0.0891 0.288885,-0.0891 0.377976,0 0.188989,0.18899 -0.18899,0.94494 0,1.13393 0.08909,0.0891 0.288885,-0.0891 0.377975,0 0.08909,0.0891 -0.08909,0.28889 0,0.37798 0.08909,0.0891 0.251984,0 0.377976,0 0.629963,0 1.259922,0 1.889882,0"
       id="path872-8"
       inkscape:connector-curvature="0" />
    <path
       style="fill:none;stroke:#000000;stroke-width:0.5;stroke-linecap:butt;stroke-linejoin:miter;stroke-miterlimit:4;stroke-dasharray:none;stroke-opacity:1"
       d="m 96.255574,122.5265 c 0.12599,-0.50397 0.25198,-1.00794 0.37797,-1.5119 0.126,0 0.28889,0.0891 0.37798,0 0.17818,-0.17819 -0.17818,-0.57778 0,-0.75596 0.78205,-0.78204 -0.0306,1.19507 0.75595,-0.37797 0.0564,-0.1127 -0.0891,-0.28889 0,-0.37798 0.17818,-0.17818 0.57778,0.17818 0.75596,0 0.17818,-0.17818 -0.17818,-0.57777 0,-0.75595 0.17818,-0.17818 0.57777,0.17818 0.75595,0 0.0891,-0.0891 -0.0891,-0.28889 0,-0.37798 0.0891,-0.0891 0.26529,0.0563 0.37798,0 0.15936,-0.0797 0.2186,-0.29829 0.377966,-0.37798 0.22538,-0.11268 0.57778,0.17818 0.75595,0 0.0891,-0.0891 -0.0891,-0.28888 0,-0.37797 0.0891,-0.0891 0.25199,0 0.37798,0 0.62996,0 1.25992,0 1.88988,0 0.12599,0 0.28889,-0.0891 0.37798,0 0.0909,0.0909 -0.091,1.42095 0,1.5119 0.17818,0.17818 0.57777,-0.17818 0.75595,0 0.17818,0.17818 -0.11269,0.53058 0,0.75596 0.38223,0.76445 0.87716,0.1212 1.13393,0.37797 0.0891,0.0891 -0.0891,0.28889 0,0.37798 0.0909,0.091 1.42095,-0.091 1.5119,0 0.17818,0.17818 -0.17818,0.57777 0,0.75595 0.18899,0.18899 0.94494,-0.18899 1.13393,0 0.0891,0.0891 -0.0891,0.28889 0,0.37798 0.091,0.0909 1.42095,-0.091 1.51191,0 0.0891,0.0891 -0.0891,0.28888 0,0.37797 0.0891,0.0891 0.25198,0 0.37797,0 0.62996,0 1.25992,0 1.88988,0 1.13393,0 2.26786,0 3.40179,0 0.12599,0 0.25199,0 0.37798,0 0.12599,0 0.28888,0.0891 0.37797,0 0.0891,-0.0891 -0.0891,-0.28888 0,-0.37797 0.17818,-0.17818 0.57778,0.17818 0.75595,0 0.0891,-0.0891 -0.0891,-0.28889 0,-0.37798 0.0891,-0.0891 0.26529,0.0563 0.37798,0 0.31874,-0.15937 0.43722,-0.59658 0.75595,-0.75595 0.11269,-0.0563 0.28889,0.0891 0.37798,0 0.0891,-0.0891 -0.0563,-0.26529 0,-0.37798 0.0797,-0.15937 0.25198,-0.25198 0.37798,-0.37797 0.12599,-0.126 0.2186,-0.2983 0.37797,-0.37798 0.11269,-0.0563 0.28889,0.0891 0.37798,0 0.78205,-0.78205 -1.19507,0.0306 0.37797,-0.75595 0.22539,-0.11269 0.57778,0.17818 0.75596,0 0.0891,-0.0891 -0.0563,-0.26529 0,-0.37798 0.0797,-0.15937 0.25198,-0.25198 0.37797,-0.37798 0.126,-0.12599 0.21861,-0.29829 0.37798,-0.37797 0.11269,-0.0564 0.25198,0 0.37798,0 0.75595,0 1.5119,0 2.26785,0 0.126,0 0.28889,-0.0891 0.37798,0 0.17818,0.17818 -0.17818,0.57777 0,0.75595 0.0891,0.0891 0.28888,-0.0891 0.37798,0 0.18898,0.18899 -0.18899,0.94494 0,1.13393 0.0891,0.0891 0.28888,-0.0891 0.37797,0 0.0891,0.0891 -0.0891,0.28889 0,0.37798 0.0891,0.0891 0.25198,0 0.37798,0 0.62996,0 1.25992,0 1.88988,0"
       id="path872-7"
       inkscape:connector-curvature="0" />
    <path
       style="fill:none;stroke:#000000;stroke-width:0.5;stroke-linecap:butt;stroke-linejoin:miter;stroke-miterlimit:4;stroke-dasharray:none;stroke-opacity:1"
       d="m 96.754814,131.90092 c 0.126,-0.50397 0.25199,-1.00794 0.37798,-1.5119 0.12599,0 0.28889,0.0891 0.37798,0 0.17818,-0.17819 -0.17818,-0.57778 0,-0.75596 0.78204,-0.78204 -0.0306,1.19507 0.75595,-0.37797 0.0563,-0.1127 -0.0891,-0.28889 0,-0.37798 0.17818,-0.17818 0.57777,0.17818 0.75595,0 0.17818,-0.17818 -0.17818,-0.57777 0,-0.75595 0.17818,-0.17818 0.57777,0.17818 0.75595,0 0.0891,-0.0891 -0.0891,-0.28889 0,-0.37798 0.0891,-0.0891 0.265286,0.0563 0.377976,0 0.15937,-0.0797 0.21861,-0.29829 0.37798,-0.37798 0.22538,-0.11268 0.57777,0.17818 0.75595,0 0.0891,-0.0891 -0.0891,-0.28888 0,-0.37797 0.0891,-0.0891 0.25198,0 0.37798,0 0.62995,0 1.25992,0 1.88988,0 0.12599,0 0.28888,-0.0891 0.37797,0 0.0909,0.0909 -0.091,1.42095 0,1.5119 0.17818,0.17818 0.57778,-0.17818 0.75596,0 0.17818,0.17818 -0.11269,0.53058 0,0.75596 0.38222,0.76445 0.87715,0.1212 1.13393,0.37797 0.0891,0.0891 -0.0891,0.28889 0,0.37798 0.091,0.091 1.42095,-0.091 1.5119,0 0.17818,0.17818 -0.17818,0.57777 0,0.75595 0.18899,0.18899 0.94494,-0.18899 1.13393,0 0.0891,0.0891 -0.0891,0.28889 0,0.37798 0.091,0.0909 1.42095,-0.091 1.5119,0 0.0891,0.0891 -0.0891,0.28888 0,0.37797 0.0891,0.0891 0.25199,0 0.37798,0 0.62996,0 1.25992,0 1.88988,0 1.13393,0 2.26786,0 3.40179,0 0.12599,0 0.25198,0 0.37797,0 0.126,0 0.28889,0.0891 0.37798,0 0.0891,-0.0891 -0.0891,-0.28888 0,-0.37797 0.17818,-0.17818 0.57777,0.17818 0.75595,0 0.0891,-0.0891 -0.0891,-0.28889 0,-0.37798 0.0891,-0.0891 0.26529,0.0563 0.37798,0 0.31873,-0.15937 0.43721,-0.59658 0.75595,-0.75595 0.11269,-0.0563 0.28889,0.0891 0.37798,0 0.0891,-0.0891 -0.0563,-0.26529 0,-0.37798 0.0797,-0.15937 0.25198,-0.25198 0.37797,-0.37797 0.12599,-0.126 0.21861,-0.2983 0.37798,-0.37798 0.11269,-0.0563 0.28888,0.0891 0.37797,0 0.78205,-0.78205 -1.19507,0.0306 0.37798,-0.75595 0.22538,-0.11269 0.57777,0.17818 0.75595,0 0.0891,-0.0891 -0.0563,-0.26529 0,-0.37798 0.0797,-0.15937 0.25199,-0.25198 0.37798,-0.37798 0.12599,-0.12599 0.21861,-0.29829 0.37798,-0.37797 0.11269,-0.0564 0.25198,0 0.37797,0 0.75595,0 1.5119,0 2.26786,0 0.12599,0 0.28888,-0.0891 0.37797,0 0.17818,0.17818 -0.17818,0.57777 0,0.75595 0.0891,0.0891 0.28889,-0.0891 0.37798,0 0.18899,0.18899 -0.18899,0.94494 0,1.13393 0.0891,0.0891 0.28889,-0.0891 0.37798,0 0.0891,0.0891 -0.0891,0.28889 0,0.37798 0.0891,0.0891 0.25198,0 0.37797,0 0.62997,0 1.25992,0 1.88988,0"
       id="path872-5-3"
       inkscape:connector-curvature="0" />
    <path
       style="fill:none;stroke:#000000;stroke-width:0.5;stroke-linecap:butt;stroke-linejoin:miter;stroke-miterlimit:4;stroke-dasharray:none;stroke-opacity:1"
       d="m 96.754814,140.97236 c 0.126,-0.50397 0.25199,-1.00794 0.37798,-1.5119 0.12599,0 0.28889,0.0891 0.37798,0 0.17818,-0.17819 -0.17818,-0.57778 0,-0.75596 0.78204,-0.78204 -0.0306,1.19507 0.75595,-0.37797 0.0563,-0.1127 -0.0891,-0.28889 0,-0.37798 0.17818,-0.17818 0.57777,0.17818 0.75595,0 0.17818,-0.17818 -0.17818,-0.57777 0,-0.75595 0.17818,-0.17818 0.57777,0.17818 0.75595,0 0.0891,-0.0891 -0.0891,-0.28889 0,-0.37798 0.0891,-0.0891 0.265286,0.0563 0.377976,0 0.15937,-0.0797 0.21861,-0.29829 0.37798,-0.37798 0.22538,-0.11268 0.57777,0.17818 0.75595,0 0.0891,-0.0891 -0.0891,-0.28888 0,-0.37797 0.0891,-0.0891 0.25198,0 0.37798,0 0.62995,0 1.25992,0 1.88988,0 0.12599,0 0.28888,-0.0891 0.37797,0 0.0909,0.0909 -0.091,1.42095 0,1.5119 0.17818,0.17818 0.57778,-0.17818 0.75595,0 0.17819,0.17818 -0.11268,0.53058 0,0.75596 0.38223,0.76445 0.87716,0.1212 1.13394,0.37797 0.0891,0.0891 -0.0891,0.28889 0,0.37798 0.091,0.091 1.42095,-0.091 1.5119,0 0.17818,0.17818 -0.17818,0.57777 0,0.75595 0.18899,0.18899 0.94494,-0.18899 1.13393,0 0.0891,0.0891 -0.0891,0.28889 0,0.37798 0.091,0.0909 1.42095,-0.091 1.5119,0 0.0891,0.0891 -0.0891,0.28888 0,0.37797 0.0891,0.0891 0.25199,0 0.37798,0 0.62996,0 1.25992,0 1.88988,0 1.13393,0 2.26786,0 3.40178,0 0.126,0 0.25199,0 0.37798,0 0.12599,0 0.28889,0.0891 0.37798,0 0.0891,-0.0891 -0.0891,-0.28888 0,-0.37797 0.17818,-0.17818 0.57777,0.17818 0.75595,0 0.0891,-0.0891 -0.0891,-0.28889 0,-0.37798 0.0891,-0.0891 0.26528,0.0563 0.37798,0 0.31873,-0.15937 0.43721,-0.59658 0.75595,-0.75595 0.11269,-0.0563 0.28889,0.0891 0.37798,0 0.0891,-0.0891 -0.0563,-0.26529 0,-0.37798 0.0797,-0.15937 0.25198,-0.25198 0.37797,-0.37797 0.12599,-0.126 0.21861,-0.2983 0.37798,-0.37798 0.11269,-0.0563 0.28888,0.0891 0.37797,0 0.78205,-0.78205 -1.19507,0.0306 0.37798,-0.75595 0.22538,-0.11269 0.57777,0.17818 0.75595,0 0.0891,-0.0891 -0.0563,-0.26529 0,-0.37798 0.0797,-0.15937 0.25199,-0.25198 0.37798,-0.37798 0.12599,-0.12599 0.21861,-0.29829 0.37797,-0.37797 0.1127,-0.0564 0.25199,0 0.37798,0 0.75595,0 1.5119,0 2.26786,0 0.12599,0 0.28888,-0.0891 0.37797,0 0.17818,0.17818 -0.17818,0.57777 0,0.75595 0.0891,0.0891 0.28889,-0.0891 0.37798,0 0.18899,0.18899 -0.18899,0.94494 0,1.13393 0.0891,0.0891 0.28889,-0.0891 0.37798,0 0.0891,0.0891 -0.0891,0.28889 0,0.37798 0.0891,0.0891 0.25198,0 0.37797,0 0.62996,0 1.25992,0 1.88988,0"
       id="path872-0-4"
       inkscape:connector-curvature="0" />
    <path
       style="fill:none;stroke:#000000;stroke-width:0.5;stroke-linecap:butt;stroke-linejoin:miter;stroke-miterlimit:4;stroke-dasharray:none;stroke-opacity:1"
       d="m 96.376844,150.42176 c 0.12599,-0.50397 0.25198,-1.00794 0.37797,-1.5119 0.126,0 0.28889,0.0891 0.37798,0 0.17818,-0.17819 -0.17818,-0.57778 0,-0.75596 0.78205,-0.78204 -0.0306,1.19507 0.75595,-0.37797 0.0563,-0.1127 -0.0891,-0.28889 0,-0.37798 0.17818,-0.17818 0.57778,0.17818 0.75596,0 0.17818,-0.17818 -0.17818,-0.57777 0,-0.75595 0.17818,-0.17818 0.57777,0.17818 0.75595,0 0.0891,-0.0891 -0.0891,-0.28889 0,-0.37798 0.0891,-0.0891 0.26528,0.0563 0.37798,0 0.15936,-0.0797 0.2186,-0.29829 0.377966,-0.37798 0.22538,-0.11268 0.57777,0.17818 0.75595,0 0.0891,-0.0891 -0.0891,-0.28888 0,-0.37797 0.0891,-0.0891 0.25199,0 0.37798,0 0.62996,0 1.25992,0 1.88988,0 0.12599,0 0.28889,-0.0891 0.37798,0 0.091,0.0909 -0.0909,1.42095 0,1.5119 0.17818,0.17818 0.57777,-0.17818 0.75595,0 0.17818,0.17818 -0.11269,0.53058 0,0.75596 0.38222,0.76445 0.87716,0.1212 1.13393,0.37797 0.0891,0.0891 -0.0891,0.28889 0,0.37798 0.0909,0.091 1.42095,-0.091 1.5119,0 0.17818,0.17818 -0.17818,0.57777 0,0.75595 0.18899,0.18899 0.94494,-0.18899 1.13393,0 0.0891,0.0891 -0.0891,0.28889 0,0.37798 0.0909,0.0909 1.42095,-0.091 1.51191,0 0.0891,0.0891 -0.0891,0.28888 0,0.37797 0.0891,0.0891 0.25198,0 0.37797,0 0.62996,0 1.25992,0 1.88988,0 1.13393,0 2.26786,0 3.40179,0 0.12599,0 0.25198,0 0.37798,0 0.12599,0 0.28888,0.0891 0.37797,0 0.0891,-0.0891 -0.0891,-0.28888 0,-0.37797 0.17818,-0.17818 0.57778,0.17818 0.75595,0 0.0891,-0.0891 -0.0891,-0.28889 0,-0.37798 0.0891,-0.0891 0.26529,0.0563 0.37798,0 0.31874,-0.15937 0.43722,-0.59658 0.75595,-0.75595 0.11269,-0.0563 0.28889,0.0891 0.37798,0 0.0891,-0.0891 -0.0563,-0.26529 0,-0.37798 0.0797,-0.15937 0.25198,-0.25198 0.37798,-0.37797 0.12599,-0.126 0.2186,-0.2983 0.37797,-0.37798 0.11269,-0.0563 0.28889,0.0891 0.37798,0 0.78204,-0.78205 -1.19507,0.0306 0.37797,-0.75595 0.22539,-0.11269 0.57778,0.17818 0.75595,0 0.0891,-0.0891 -0.0563,-0.26529 0,-0.37798 0.0797,-0.15937 0.25199,-0.25198 0.37798,-0.37798 0.126,-0.12599 0.21861,-0.29829 0.37798,-0.37797 0.11269,-0.0564 0.25198,0 0.37797,0 0.75596,0 1.51191,0 2.26786,0 0.12599,0 0.28889,-0.0891 0.37798,0 0.17818,0.17818 -0.17818,0.57777 0,0.75595 0.0891,0.0891 0.28888,-0.0891 0.37797,0 0.18899,0.18899 -0.18898,0.94494 0,1.13393 0.0891,0.0891 0.28889,-0.0891 0.37798,0 0.0891,0.0891 -0.0891,0.28889 0,0.37798 0.0891,0.0891 0.25198,0 0.37798,0 0.62996,0 1.25992,0 1.88988,0"
       id="path872-9-7"
       inkscape:connector-curvature="0" />
    <path
       style="fill:none;stroke:#000000;stroke-width:0.5;stroke-linecap:butt;stroke-linejoin:miter;stroke-miterlimit:4;stroke-dasharray:none;stroke-opacity:1"
       d="m 96.754814,160.62711 c 0.126,-0.50397 0.25199,-1.00794 0.37798,-1.5119 0.12599,0 0.28889,0.0891 0.37798,0 0.17818,-0.17819 -0.17818,-0.57778 0,-0.75596 0.78204,-0.78204 -0.0306,1.19507 0.75595,-0.37797 0.0563,-0.1127 -0.0891,-0.28889 0,-0.37798 0.17818,-0.17818 0.57777,0.17818 0.75595,0 0.17818,-0.17818 -0.17818,-0.57777 0,-0.75595 0.17818,-0.17818 0.57777,0.17818 0.75595,0 0.0891,-0.0891 -0.0891,-0.28889 0,-0.37798 0.0891,-0.0891 0.265286,0.0563 0.377976,0 0.15937,-0.0797 0.21861,-0.29829 0.37798,-0.37798 0.22538,-0.11268 0.57777,0.17818 0.75595,0 0.0891,-0.0891 -0.0891,-0.28888 0,-0.37797 0.0891,-0.0891 0.25198,0 0.37798,0 0.62995,0 1.25992,0 1.88988,0 0.12599,0 0.28888,-0.0891 0.37797,0 0.0909,0.0909 -0.091,1.42095 0,1.5119 0.17818,0.17818 0.57778,-0.17818 0.75595,0 0.17819,0.17818 -0.11268,0.53058 0,0.75596 0.38223,0.76445 0.87716,0.1212 1.13394,0.37797 0.0891,0.0891 -0.0891,0.28889 0,0.37798 0.091,0.091 1.42095,-0.091 1.5119,0 0.17818,0.17818 -0.17818,0.57777 0,0.75595 0.18899,0.18899 0.94494,-0.18899 1.13393,0 0.0891,0.0891 -0.0891,0.28889 0,0.37798 0.091,0.0909 1.42095,-0.091 1.5119,0 0.0891,0.0891 -0.0891,0.28888 0,0.37797 0.0891,0.0891 0.25199,0 0.37798,0 0.62996,0 1.25992,0 1.88988,0 1.13393,0 2.26786,0 3.40178,0 0.126,0 0.25199,0 0.37798,0 0.12599,0 0.28889,0.0891 0.37798,0 0.0891,-0.0891 -0.0891,-0.28888 0,-0.37797 0.17818,-0.17818 0.57777,0.17818 0.75595,0 0.0891,-0.0891 -0.0891,-0.28889 0,-0.37798 0.0891,-0.0891 0.26528,0.0563 0.37798,0 0.31873,-0.15937 0.43721,-0.59658 0.75595,-0.75595 0.11269,-0.0563 0.28889,0.0891 0.37798,0 0.0891,-0.0891 -0.0563,-0.26529 0,-0.37798 0.0797,-0.15937 0.25198,-0.25198 0.37797,-0.37797 0.12599,-0.126 0.21861,-0.2983 0.37798,-0.37798 0.11269,-0.0563 0.28888,0.0891 0.37797,0 0.78205,-0.78205 -1.19507,0.0306 0.37798,-0.75595 0.22538,-0.11269 0.57777,0.17818 0.75595,0 0.0891,-0.0891 -0.0563,-0.26529 0,-0.37798 0.0797,-0.15937 0.25199,-0.25198 0.37798,-0.37798 0.12599,-0.12599 0.21861,-0.29829 0.37797,-0.37797 0.1127,-0.0564 0.25199,0 0.37798,0 0.75595,0 1.5119,0 2.26786,0 0.12599,0 0.28888,-0.0891 0.37797,0 0.17818,0.17818 -0.17818,0.57777 0,0.75595 0.0891,0.0891 0.28889,-0.0891 0.37798,0 0.18899,0.18899 -0.18899,0.94494 0,1.13393 0.0891,0.0891 0.28889,-0.0891 0.37798,0 0.0891,0.0891 -0.0891,0.28889 0,0.37798 0.0891,0.0891 0.25198,0 0.37797,0 0.62996,0 1.25992,0 1.88988,0"
       id="path872-8-6"
       inkscape:connector-curvature="0" />
    <path
       style="fill:none;stroke:#000000;stroke-width:1.08735096;stroke-linecap:butt;stroke-linejoin:miter;stroke-miterlimit:4;stroke-dasharray:none;stroke-opacity:1"
       d="m 45.763422,175.31811 c 8.41e-4,-8.83378 0.149815,-67.66349 0.149815,-67.66349 l 44.423814,2.62514 44.137079,-2.62514 v 71.17451 0"
       id="path834-9"
       inkscape:connector-curvature="0"
       sodipodi:nodetypes="cccccc" />
    <path
       style="fill:none;stroke:#000000;stroke-width:1.03733587;stroke-linecap:butt;stroke-linejoin:miter;stroke-miterlimit:4;stroke-dasharray:none;stroke-opacity:1"
       d="m 45.763422,175.31811 23.102517,-1.49022 21.471112,0.33388"
       id="path817-1"
       inkscape:connector-curvature="0"
       sodipodi:nodetypes="ccc" />
    <path
       style="fill:none;stroke:#000000;stroke-width:1.03104615;stroke-linecap:butt;stroke-linejoin:miter;stroke-miterlimit:4;stroke-dasharray:none;stroke-opacity:1"
       d="m 90.337053,174.16177 21.612867,1.1957 22.52421,3.47166"
       id="path817-0-4"
       inkscape:connector-curvature="0"
       sodipodi:nodetypes="ccc" />
  </g>
</svg>
