<?xml version="1.0" encoding="UTF-8" standalone="no"?>
<!-- Created with Inkscape (http://www.inkscape.org/) -->

<svg
   xmlns:dc="http://purl.org/dc/elements/1.1/"
   xmlns:cc="http://creativecommons.org/ns#"
   xmlns:rdf="http://www.w3.org/1999/02/22-rdf-syntax-ns#"
   xmlns:svg="http://www.w3.org/2000/svg"
   xmlns="http://www.w3.org/2000/svg"
   xmlns:sodipodi="http://sodipodi.sourceforge.net/DTD/sodipodi-0.dtd"
   xmlns:inkscape="http://www.inkscape.org/namespaces/inkscape"
   width="210mm"
   height="297mm"
   viewBox="0 0 210 297"
   version="1.1"
   id="svg8"
   inkscape:version="0.92.3 (2405546, 2018-03-11)"
   sodipodi:docname="NoteBook.svg">
  <defs
     id="defs2" />
  <sodipodi:namedview
     id="base"
     pagecolor="#ffffff"
     bordercolor="#666666"
     borderopacity="1.0"
     inkscape:pageopacity="0.0"
     inkscape:pageshadow="2"
     inkscape:zoom="0.7"
     inkscape:cx="179.69779"
     inkscape:cy="608.15687"
     inkscape:document-units="mm"
     inkscape:current-layer="layer1"
     showgrid="false"
     inkscape:window-width="1920"
     inkscape:window-height="1017"
     inkscape:window-x="-8"
     inkscape:window-y="-8"
     inkscape:window-maximized="1" />
  <metadata
     id="metadata5">
    <rdf:RDF>
      <cc:Work
         rdf:about="">
        <dc:format>image/svg+xml</dc:format>
        <dc:type
           rdf:resource="http://purl.org/dc/dcmitype/StillImage" />
        <dc:title></dc:title>
      </cc:Work>
    </rdf:RDF>
  </metadata>
  <g
     inkscape:label="Layer 1"
     inkscape:groupmode="layer"
     id="layer1">
    <rect
       style="fill:none;fill-opacity:1;stroke:#000000;stroke-width:1;stroke-linejoin:round;stroke-miterlimit:4;stroke-dasharray:none;stroke-dashoffset:0;stroke-opacity:1"
       id="rect815"
       width="59.720242"
       height="74.083336"
       x="67.657738"
       y="109.14583" />
    <path
       style="fill:none;stroke:#000000;stroke-width:0.89104986;stroke-linecap:butt;stroke-linejoin:miter;stroke-miterlimit:4;stroke-dasharray:none;stroke-opacity:1"
       d="M 67.657737,120.48512 H 127.37798"
       id="path825"
       inkscape:connector-curvature="0" />
    <path
       style="fill:none;stroke:#000000;stroke-width:0.5;stroke-linecap:butt;stroke-linejoin:miter;stroke-miterlimit:4;stroke-dasharray:none;stroke-opacity:1"
       d="m 74.839286,135.98214 c 1.126905,-0.36393 -0.281728,-1.32642 0,-1.88988 0.07968,-0.15937 0.298291,-0.2186 0.377976,-0.37797 0.05634,-0.1127 -0.08909,-0.28889 0,-0.37798 0.08909,-0.0891 0.288885,0.0891 0.377976,0 0.08909,-0.0891 -0.08909,-0.28888 0,-0.37798 0.782044,-0.78204 -0.03057,1.19507 0.755951,-0.37797 0.260684,-0.52137 -0.45775,-0.33809 0.377976,-0.75596 0.225383,-0.11268 0.577773,0.17819 0.755954,0 0.08909,-0.0891 -0.05634,-0.26528 0,-0.37797 0.417862,-0.83573 0.234588,-0.11729 0.755952,-0.37798 0.159369,-0.0797 0.218607,-0.29829 0.377976,-0.37797 0.112691,-0.0563 0.251984,0 0.377976,0 0.125991,0 0.251983,0 0.377975,0 0.629963,0 1.259922,0 1.889882,0 0.178215,0 1.87275,-0.0171 1.889882,0 0.08909,0.0891 0,0.25198 0,0.37797 0,0.12599 0,0.25199 0,0.37798 0,0.75595 0,1.5119 0,2.26786 0,0.12599 -0.08909,0.28888 0,0.37797 0.08909,0.0891 0.288885,-0.0891 0.377975,0 0.08909,0.0891 -0.08909,0.28889 0,0.37798 0.08909,0.0891 0.288886,-0.0891 0.377976,0 0.08909,0.0891 -0.08909,0.28889 0,0.37797 0.178181,0.17818 0.577774,-0.17817 0.755952,0 0.08909,0.0891 -0.08909,0.28889 0,0.37798 0.08909,0.0891 0.288888,-0.0891 0.377976,0 0.08909,0.0891 -0.08909,0.28889 0,0.37798 0.178181,0.17818 0.577773,-0.17818 0.755954,0 0.08909,0.0891 -0.08909,0.28888 0,0.37797 0.08909,0.0891 0.251984,0 0.377976,0 0.125992,0 0.251984,0 0.377976,0 1.133927,0 2.267857,0 3.401785,0 0.267911,0 2.170131,0.0489 2.267857,0 1.152663,-0.57633 -0.691298,-0.29964 1.13393,-0.75595 0.244459,-0.0611 0.530569,0.11269 0.755952,0 0.112691,-0.0563 -0.05635,-0.26529 0,-0.37798 0.07968,-0.15936 0.218606,-0.29829 0.377975,-0.37797 0.149866,-0.0749 1.056656,0.0773 1.133928,0 0.252738,-0.25274 -0.252735,-0.50322 0,-0.75595 0.178181,-0.17818 0.577773,0.17818 0.755954,0 0.178179,-0.17818 -0.178181,-0.57778 0,-0.75596 0.178179,-0.17818 0.577773,0.17818 0.755952,0 0.08909,-0.0891 -0.05635,-0.26528 0,-0.37797 0.07968,-0.15937 0.298291,-0.21861 0.377976,-0.37798 0.05634,-0.11269 -0.08909,-0.28888 0,-0.37798 0.178181,-0.17817 0.577773,0.17819 0.755951,0 0.782048,-0.78204 -1.19507,0.0306 0.377979,-0.75595 0.11503,-0.0575 0.963702,0 1.133927,0 0.881947,0 1.763887,0 2.645837,0 0.62996,0 1.25991,0 1.88988,0 0.12599,0 0.28888,-0.0891 0.37797,0 0.11704,0.11704 -0.11704,1.77284 0,1.88988 0.0891,0.0891 0.28889,-0.0891 0.37798,0 0.0891,0.0891 -0.0891,0.28889 0,0.37798 0.17818,0.17818 0.57777,-0.17818 0.75595,0 0.17818,0.17818 -0.17818,0.57777 0,0.75595 0.091,0.091 1.42095,-0.0909 1.51191,0 0.0891,0.0891 0,0.25199 0,0.37798 0.12599,0 0.26528,-0.0564 0.37797,0 0.15937,0.0797 0.21861,0.29829 0.37798,0.37797 0.11503,0.0575 0.9637,0 1.13393,0 0.75595,0 1.5119,0 2.26785,0 2.01588,0 4.03175,0 6.04762,0 0.13881,0 1.4967,0.0152 1.51191,0 0.50396,-0.50396 -0.62996,-0.37797 0.37797,-0.37797 0.88643,0 -0.17818,0.0891 0.75596,-0.37798 0.11269,-0.0563 0.28888,0.0891 0.37797,0 0.0891,-0.0891 0,-0.25198 0,-0.37797"
       id="path841"
       inkscape:connector-curvature="0" />
    <path
       style="fill:none;stroke:#000000;stroke-width:0.5;stroke-linecap:butt;stroke-linejoin:miter;stroke-miterlimit:4;stroke-dasharray:none;stroke-opacity:1"
       d="m 74.650355,146.18085 c 1.126905,-0.36393 -0.281728,-1.32642 0,-1.88988 0.07968,-0.15937 0.298291,-0.2186 0.377976,-0.37797 0.05634,-0.1127 -0.08909,-0.28889 0,-0.37798 0.08909,-0.0891 0.288885,0.0891 0.377976,0 0.08909,-0.0891 -0.08909,-0.28888 0,-0.37798 0.782044,-0.78204 -0.03057,1.19507 0.755951,-0.37797 0.260684,-0.52137 -0.45775,-0.33809 0.377976,-0.75596 0.225383,-0.11268 0.577773,0.17819 0.755954,0 0.08909,-0.0891 -0.05634,-0.26528 0,-0.37797 0.417862,-0.83573 0.234588,-0.11729 0.755952,-0.37798 0.159369,-0.0797 0.218607,-0.29829 0.377976,-0.37797 0.112691,-0.0563 0.251984,0 0.377976,0 0.125991,0 0.251983,0 0.377975,0 0.629963,0 1.259922,0 1.889882,0 0.178215,0 1.87275,-0.0171 1.889882,0 0.08909,0.0891 0,0.25198 0,0.37797 0,0.12599 0,0.25199 0,0.37798 0,0.75595 0,1.5119 0,2.26786 0,0.12599 -0.08909,0.28888 0,0.37797 0.08909,0.0891 0.288885,-0.0891 0.377975,0 0.08909,0.0891 -0.08909,0.28889 0,0.37798 0.08909,0.0891 0.288886,-0.0891 0.377976,0 0.08909,0.0891 -0.08909,0.28889 0,0.37797 0.178181,0.17818 0.577774,-0.17817 0.755953,0 0.08909,0.0891 -0.08909,0.28889 0,0.37798 0.08909,0.0891 0.288888,-0.0891 0.377976,0 0.08909,0.0891 -0.08909,0.28889 0,0.37798 0.178181,0.17818 0.577773,-0.17818 0.755954,0 0.08909,0.0891 -0.08909,0.28888 0,0.37797 0.08909,0.0891 0.251984,0 0.377976,0 0.125992,0 0.251984,0 0.377976,0 1.133927,0 2.267857,0 3.401785,0 0.267911,0 2.170131,0.0489 2.267857,0 1.152663,-0.57633 -0.691298,-0.29964 1.13393,-0.75595 0.244459,-0.0611 0.530569,0.11269 0.755952,0 0.112691,-0.0563 -0.05635,-0.26529 0,-0.37798 0.07968,-0.15936 0.218606,-0.29829 0.377975,-0.37797 0.149866,-0.0749 1.056656,0.0773 1.133928,0 0.252738,-0.25274 -0.252735,-0.50322 0,-0.75595 0.178181,-0.17818 0.577773,0.17818 0.755954,0 0.178179,-0.17818 -0.178181,-0.57778 0,-0.75596 0.178179,-0.17818 0.577773,0.17818 0.755952,0 0.08909,-0.0891 -0.05635,-0.26528 0,-0.37797 0.07968,-0.15937 0.298291,-0.21861 0.377976,-0.37798 0.05634,-0.11269 -0.08909,-0.28888 0,-0.37798 0.178181,-0.17817 0.577771,0.17819 0.755951,0 0.78205,-0.78204 -1.19507,0.0306 0.37798,-0.75595 0.11503,-0.0575 0.9637,0 1.13393,0 0.881943,0 1.763893,0 2.645833,0 0.62996,0 1.25991,0 1.88988,0 0.12599,0 0.28888,-0.0891 0.37797,0 0.11704,0.11704 -0.11704,1.77284 0,1.88988 0.0891,0.0891 0.28889,-0.0891 0.37798,0 0.0891,0.0891 -0.0891,0.28889 0,0.37798 0.17818,0.17818 0.57777,-0.17818 0.75595,0 0.17818,0.17818 -0.17818,0.57777 0,0.75595 0.091,0.091 1.42095,-0.0909 1.51191,0 0.0891,0.0891 0,0.25199 0,0.37798 0.12599,0 0.26528,-0.0564 0.37797,0 0.15937,0.0797 0.21861,0.29829 0.37798,0.37797 0.11503,0.0575 0.9637,0 1.13393,0 0.75595,0 1.5119,0 2.26785,0 2.01588,0 4.03175,0 6.04762,0 0.13881,0 1.4967,0.0152 1.51191,0 0.50396,-0.50396 -0.62996,-0.37797 0.37797,-0.37797 0.88643,0 -0.17818,0.0891 0.75596,-0.37798 0.11269,-0.0563 0.28888,0.0891 0.37797,0 0.0891,-0.0891 0,-0.25198 0,-0.37797"
       id="path841-2"
       inkscape:connector-curvature="0" />
    <path
       inkscape:connector-curvature="0"
       id="path858"
       d="m 73.894402,156.76419 c 1.126905,-0.36393 -0.281728,-1.32642 0,-1.88988 0.07968,-0.15937 0.298291,-0.2186 0.377976,-0.37797 0.05634,-0.1127 -0.08909,-0.28889 0,-0.37798 0.08909,-0.0891 0.288885,0.0891 0.377976,0 0.08909,-0.0891 -0.08909,-0.28888 0,-0.37798 0.782044,-0.78204 -0.03057,1.19507 0.755951,-0.37797 0.260684,-0.52137 -0.45775,-0.33809 0.377976,-0.75596 0.225383,-0.11268 0.577773,0.17819 0.755954,0 0.08909,-0.0891 -0.05634,-0.26528 0,-0.37797 0.417862,-0.83573 0.234588,-0.11729 0.755952,-0.37798 0.159369,-0.0797 0.218607,-0.29829 0.377976,-0.37797 0.112691,-0.0563 0.251984,0 0.377976,0 0.125991,0 0.251983,0 0.377975,0 0.629963,0 1.259922,0 1.889882,0 0.178215,0 1.87275,-0.0171 1.889882,0 0.08909,0.0891 0,0.25198 0,0.37797 0,0.12599 0,0.25199 0,0.37798 0,0.75595 0,1.5119 0,2.26786 0,0.12599 -0.08909,0.28888 0,0.37797 0.08909,0.0891 0.288885,-0.0891 0.377975,0 0.08909,0.0891 -0.08909,0.28889 0,0.37798 0.08909,0.0891 0.288886,-0.0891 0.377976,0 0.08909,0.0891 -0.08909,0.28889 0,0.37797 0.178181,0.17818 0.577774,-0.17817 0.755953,0 0.08909,0.0891 -0.08909,0.28889 0,0.37798 0.08909,0.0891 0.288888,-0.0891 0.377976,0 0.08909,0.0891 -0.08909,0.28889 0,0.37798 0.178181,0.17818 0.577773,-0.17818 0.755954,0 0.08909,0.0891 -0.08909,0.28888 0,0.37797 0.08909,0.0891 0.251984,0 0.377976,0 0.125992,0 0.251984,0 0.377976,0 1.133927,0 2.267857,0 3.401785,0 0.267911,0 2.170131,0.0489 2.267857,0 1.152663,-0.57633 -0.691298,-0.29964 1.13393,-0.75595 0.244459,-0.0611 0.530569,0.11269 0.755952,0 0.112691,-0.0563 -0.05635,-0.26529 0,-0.37798 0.07968,-0.15936 0.218606,-0.29829 0.377975,-0.37797 0.149866,-0.0749 1.056656,0.0773 1.133928,0 0.252738,-0.25274 -0.252735,-0.50322 0,-0.75595 0.178181,-0.17818 0.577773,0.17818 0.755954,0 0.178179,-0.17818 -0.178181,-0.57778 0,-0.75596 0.178179,-0.17818 0.577773,0.17818 0.755952,0 0.08909,-0.0891 -0.05635,-0.26528 0,-0.37797 0.07968,-0.15937 0.298291,-0.21861 0.377976,-0.37798 0.05634,-0.11269 -0.08909,-0.28888 0,-0.37798 0.178181,-0.17817 0.577771,0.17819 0.755951,0 0.78205,-0.78204 -1.19507,0.0306 0.37798,-0.75595 0.11503,-0.0575 0.9637,0 1.13393,0 0.881937,0 1.763886,0 2.645826,0 0.62996,0 1.25991,0 1.88988,0 0.12599,0 0.28888,-0.0891 0.37797,0 0.11704,0.11704 -0.11704,1.77284 0,1.88988 0.0891,0.0891 0.28889,-0.0891 0.37798,0 0.0891,0.0891 -0.0891,0.28889 0,0.37798 0.17818,0.17818 0.57777,-0.17818 0.75595,0 0.17818,0.17818 -0.17818,0.57777 0,0.75595 0.091,0.091 1.42095,-0.0909 1.51191,0 0.0891,0.0891 0,0.25199 0,0.37798 0.12599,0 0.26528,-0.0564 0.37797,0 0.15937,0.0797 0.21861,0.29829 0.37798,0.37797 0.11503,0.0575 0.9637,0 1.13393,0 0.75595,0 1.5119,0 2.26785,0 2.01588,0 4.03175,0 6.04762,0 0.13881,0 1.4967,0.0152 1.51191,0 0.50396,-0.50396 -0.62996,-0.37797 0.37797,-0.37797 0.88643,0 -0.17818,0.0891 0.75596,-0.37798 0.11269,-0.0563 0.28888,0.0891 0.37797,0 0.0891,-0.0891 0,-0.25198 0,-0.37797"
       style="fill:none;stroke:#000000;stroke-width:0.5;stroke-linecap:butt;stroke-linejoin:miter;stroke-miterlimit:4;stroke-dasharray:none;stroke-opacity:1" />
    <path
       style="fill:none;stroke:#000000;stroke-width:0.5;stroke-linecap:butt;stroke-linejoin:miter;stroke-miterlimit:4;stroke-dasharray:none;stroke-opacity:1"
       d="m 73.516426,165.45764 c 1.126905,-0.36393 -0.281728,-1.32642 0,-1.88988 0.07968,-0.15937 0.298291,-0.2186 0.377976,-0.37797 0.05634,-0.1127 -0.08909,-0.28889 0,-0.37798 0.08909,-0.0891 0.288885,0.0891 0.377976,0 0.08909,-0.0891 -0.08909,-0.28888 0,-0.37798 0.782044,-0.78204 -0.03057,1.19507 0.755951,-0.37797 0.260684,-0.52137 -0.45775,-0.33809 0.377976,-0.75596 0.225383,-0.11268 0.577773,0.17819 0.755954,0 0.08909,-0.0891 -0.05634,-0.26528 0,-0.37797 0.417862,-0.83573 0.234588,-0.11729 0.755952,-0.37798 0.159369,-0.0797 0.218607,-0.29829 0.377976,-0.37797 0.112691,-0.0563 0.251984,0 0.377976,0 0.125991,0 0.251983,0 0.377975,0 0.629963,0 1.259922,0 1.889882,0 0.178215,0 1.87275,-0.0171 1.889882,0 0.08909,0.0891 0,0.25198 0,0.37797 0,0.12599 0,0.25199 0,0.37798 0,0.75595 0,1.5119 0,2.26786 0,0.12599 -0.08909,0.28888 0,0.37797 0.08909,0.0891 0.288885,-0.0891 0.377975,0 0.08909,0.0891 -0.08909,0.28889 0,0.37798 0.08909,0.0891 0.288886,-0.0891 0.377976,0 0.08909,0.0891 -0.08909,0.28889 0,0.37797 0.178181,0.17818 0.577774,-0.17817 0.755953,0 0.08909,0.0891 -0.08909,0.28889 0,0.37798 0.08909,0.0891 0.288888,-0.0891 0.377976,0 0.08909,0.0891 -0.08909,0.28889 0,0.37798 0.178181,0.17818 0.577773,-0.17818 0.755954,0 0.08909,0.0891 -0.08909,0.28888 0,0.37797 0.08909,0.0891 0.251984,0 0.377976,0 0.125992,0 0.251984,0 0.377976,0 1.133927,0 2.267857,0 3.401785,0 0.267911,0 2.170131,0.0489 2.267857,0 1.152663,-0.57633 -0.691298,-0.29964 1.13393,-0.75595 0.244459,-0.0611 0.530569,0.11269 0.755952,0 0.112691,-0.0563 -0.05635,-0.26529 0,-0.37798 0.07968,-0.15936 0.218606,-0.29829 0.377975,-0.37797 0.149866,-0.0749 1.056656,0.0773 1.133928,0 0.252738,-0.25274 -0.252735,-0.50322 0,-0.75595 0.178181,-0.17818 0.577773,0.17818 0.755954,0 0.178179,-0.17818 -0.178181,-0.57778 0,-0.75596 0.178179,-0.17818 0.577773,0.17818 0.755952,0 0.08909,-0.0891 -0.05635,-0.26528 0,-0.37797 0.07968,-0.15937 0.298291,-0.21861 0.377976,-0.37798 0.05634,-0.11269 -0.08909,-0.28888 0,-0.37798 0.178181,-0.17817 0.577771,0.17819 0.755951,0 0.78205,-0.78204 -1.19507,0.0306 0.37798,-0.75595 0.11503,-0.0575 0.9637,0 1.13393,0 0.881937,0 1.763882,0 2.645822,0 0.62996,0 1.25991,0 1.88988,0 0.12599,0 0.28888,-0.0891 0.37797,0 0.11704,0.11704 -0.11704,1.77284 0,1.88988 0.0891,0.0891 0.28889,-0.0891 0.37798,0 0.0891,0.0891 -0.0891,0.28889 0,0.37798 0.17818,0.17818 0.57777,-0.17818 0.75595,0 0.17818,0.17818 -0.17818,0.57777 0,0.75595 0.091,0.091 1.42095,-0.0909 1.51191,0 0.0891,0.0891 0,0.25199 0,0.37798 0.12599,0 0.26528,-0.0564 0.37797,0 0.15937,0.0797 0.21861,0.29829 0.37798,0.37797 0.11503,0.0575 0.9637,0 1.13393,0 0.75595,0 1.5119,0 2.26785,0 2.01588,0 4.03175,0 6.04762,0 0.13881,0 1.4967,0.0152 1.51191,0 0.50396,-0.50396 -0.62996,-0.37797 0.37797,-0.37797 0.88643,0 -0.17818,0.0891 0.75596,-0.37798 0.11269,-0.0563 0.28888,0.0891 0.37797,0 0.0891,-0.0891 0,-0.25198 0,-0.37797"
       id="path860"
       inkscape:connector-curvature="0" />
    <path
       inkscape:connector-curvature="0"
       id="path862"
       d="m 73.894402,174.15109 c 1.126905,-0.36393 -0.281728,-1.32642 0,-1.88988 0.07968,-0.15937 0.298291,-0.2186 0.377976,-0.37797 0.05634,-0.1127 -0.08909,-0.28889 0,-0.37798 0.08909,-0.0891 0.288885,0.0891 0.377976,0 0.08909,-0.0891 -0.08909,-0.28888 0,-0.37798 0.782044,-0.78204 -0.03057,1.19507 0.755951,-0.37797 0.260684,-0.52137 -0.45775,-0.33809 0.377976,-0.75596 0.225383,-0.11268 0.577773,0.17819 0.755954,0 0.08909,-0.0891 -0.05634,-0.26528 0,-0.37797 0.417862,-0.83573 0.234588,-0.11729 0.755952,-0.37798 0.159369,-0.0797 0.218607,-0.29829 0.377976,-0.37797 0.112691,-0.0563 0.251984,0 0.377976,0 0.125991,0 0.251983,0 0.377975,0 0.629963,0 1.259922,0 1.889882,0 0.178215,0 1.87275,-0.0171 1.889882,0 0.08909,0.0891 0,0.25198 0,0.37797 0,0.12599 0,0.25199 0,0.37798 0,0.75595 0,1.5119 0,2.26786 0,0.12599 -0.08909,0.28888 0,0.37797 0.08909,0.0891 0.288885,-0.0891 0.377975,0 0.08909,0.0891 -0.08909,0.28889 0,0.37798 0.08909,0.0891 0.288886,-0.0891 0.377976,0 0.08909,0.0891 -0.08909,0.28889 0,0.37797 0.178181,0.17818 0.577774,-0.17817 0.755953,0 0.08909,0.0891 -0.08909,0.28889 0,0.37798 0.08909,0.0891 0.288888,-0.0891 0.377976,0 0.08909,0.0891 -0.08909,0.28889 0,0.37798 0.178181,0.17818 0.577773,-0.17818 0.755954,0 0.08909,0.0891 -0.08909,0.28888 0,0.37797 0.08909,0.0891 0.251984,0 0.377976,0 0.125992,0 0.251984,0 0.377976,0 1.133927,0 2.267857,0 3.401785,0 0.267911,0 2.170131,0.0489 2.267857,0 1.152663,-0.57633 -0.691298,-0.29964 1.13393,-0.75595 0.244459,-0.0611 0.530569,0.11269 0.755952,0 0.112691,-0.0563 -0.05635,-0.26529 0,-0.37798 0.07968,-0.15936 0.218606,-0.29829 0.377975,-0.37797 0.149866,-0.0749 1.056656,0.0773 1.133928,0 0.252738,-0.25274 -0.252735,-0.50322 0,-0.75595 0.178181,-0.17818 0.577773,0.17818 0.755954,0 0.178179,-0.17818 -0.178181,-0.57778 0,-0.75596 0.178179,-0.17818 0.577773,0.17818 0.755952,0 0.08909,-0.0891 -0.05635,-0.26528 0,-0.37797 0.07968,-0.15937 0.298291,-0.21861 0.377976,-0.37798 0.05634,-0.11269 -0.08909,-0.28888 0,-0.37798 0.178181,-0.17817 0.577771,0.17819 0.755951,0 0.78205,-0.78204 -1.19507,0.0306 0.37798,-0.75595 0.11503,-0.0575 0.9637,0 1.13393,0 0.881937,0 1.763886,0 2.645826,0 0.62996,0 1.25991,0 1.88988,0 0.12599,0 0.28888,-0.0891 0.37797,0 0.11704,0.11704 -0.11704,1.77284 0,1.88988 0.0891,0.0891 0.28889,-0.0891 0.37798,0 0.0891,0.0891 -0.0891,0.28889 0,0.37798 0.17818,0.17818 0.57777,-0.17818 0.75595,0 0.17818,0.17818 -0.17818,0.57777 0,0.75595 0.091,0.091 1.42095,-0.0909 1.51191,0 0.0891,0.0891 0,0.25199 0,0.37798 0.12599,0 0.26528,-0.0564 0.37797,0 0.15937,0.0797 0.21861,0.29829 0.37798,0.37797 0.11503,0.0575 0.9637,0 1.13393,0 0.75595,0 1.5119,0 2.26785,0 2.01588,0 4.03175,0 6.04762,0 0.13881,0 1.4967,0.0152 1.51191,0 0.50396,-0.50396 -0.62996,-0.37797 0.37797,-0.37797 0.88643,0 -0.17818,0.0891 0.75596,-0.37798 0.11269,-0.0563 0.28888,0.0891 0.37797,0 0.0891,-0.0891 0,-0.25198 0,-0.37797"
       style="fill:none;stroke:#000000;stroke-width:0.5;stroke-linecap:butt;stroke-linejoin:miter;stroke-miterlimit:4;stroke-dasharray:none;stroke-opacity:1" />
  </g>
</svg>
